<svg width="1440" height="345" viewBox="0 0 1440 345" fill="none" xmlns="http://www.w3.org/2000/svg">
<path fill-rule="evenodd" clip-rule="evenodd" d="M1440 153.95C1440 159.866 1434.89 164.489 1429 163.9L1380 159C1320 153 1200 141 1080 153C960 165 840 201 720 195C600 189 480 141 360 159C240 177 120 261 60 303L15.7346 333.986C9.10681 338.625 0 333.884 0 325.793V31C0 25.4771 4.47705 21 10 21H60C120 21 240 21 360 21C480 21 600 21 720 21C840 21 960 21 1080 21C1200 21 1320 21 1380 21H1430C1435.52 21 1440 25.4771 1440 31V153.95Z" fill="#EDC52F" fill-opacity="0.67"/>
<path fill-rule="evenodd" clip-rule="evenodd" d="M1440 144L1380 138C1320 132 1200 120 1080 132C960 144 840 180 720 174C600 168 480 120 360 138C240 156 120 240 60 282L0 324V0H60C120 0 240 0 360 0C480 0 600 0 720 0C840 0 960 0 1080 0C1200 0 1320 0 1380 0H1440V144Z" fill="#EDC52F"/>
</svg>
