<svg width="1440" height="350" viewBox="0 0 1440 350" fill="none" xmlns="http://www.w3.org/2000/svg">
<path fill-rule="evenodd" clip-rule="evenodd" d="M0 191.05C0 185.134 5.10818 180.511 10.995 181.1L60 186C120 192 240 204 360 192C480 180 600 144 720 150C840 156 960 204 1080 186C1200 168 1320 84 1380 42L1424.27 11.0142C1430.89 6.3748 1440 11.1163 1440 19.2066V314C1440 319.523 1435.52 324 1430 324H1380C1320 324 1200 324 1080 324C960 324 840 324 720 324C600 324 480 324 360 324C240 324 120 324 60 324H10C4.47715 324 0 319.523 0 314V191.05Z" fill="#EDC52F" fill-opacity="0.67"/>
<path fill-rule="evenodd" clip-rule="evenodd" d="M0 206L60 212C120 218 240 230 360 218C480 206 600 170 720 176C840 182 960 230 1080 212C1200 194 1320 110 1380 68L1440 26V350H1380C1320 350 1200 350 1080 350C960 350 840 350 720 350C600 350 480 350 360 350C240 350 120 350 60 350H0V206Z" fill="#EDC52F"/>
</svg>
